<svg width="50" height="51" viewBox="0 0 50 51" fill="none" xmlns="http://www.w3.org/2000/svg">
<path d="M13.7917 22.8012C16.7917 28.697 21.625 33.5095 27.5208 36.5304L32.1042 31.947C32.6667 31.3845 33.5 31.197 34.2292 31.447C36.5625 32.2179 39.0833 32.6345 41.6667 32.6345C42.8125 32.6345 43.75 33.572 43.75 34.7179V41.9887C43.75 43.1345 42.8125 44.072 41.6667 44.072C22.1042 44.072 6.25 28.2179 6.25 8.65535C6.25 7.50952 7.1875 6.57202 8.33333 6.57202H15.625C16.7708 6.57202 17.7083 7.50952 17.7083 8.65535C17.7083 11.2595 18.125 13.7595 18.8958 16.0929C19.125 16.822 18.9583 17.6345 18.375 18.2179L13.7917 22.8012Z" fill="#2D3748"/>
</svg>
