<svg width="68" height="68" viewBox="0 0 68 68" fill="none" xmlns="http://www.w3.org/2000/svg">
<path fill-rule="evenodd" clip-rule="evenodd" d="M53.8333 11.3334H51V5.66675H45.3333V11.3334H22.6667V5.66675H17V11.3334H14.1667C11.0217 11.3334 8.52833 13.8834 8.52833 17.0001L8.5 56.6667C8.5 59.7834 11.0217 62.3334 14.1667 62.3334H53.8333C56.95 62.3334 59.5 59.7834 59.5 56.6667V17.0001C59.5 13.8834 56.95 11.3334 53.8333 11.3334ZM19.8333 31.1667V36.8334H25.5V31.1667H19.8333ZM36.8333 31.1667H31.1667V36.8334H36.8333V31.1667ZM48.1667 31.1667V36.8334H42.5V31.1667H48.1667ZM14.1667 56.6667H53.8333V25.5001H14.1667V56.6667Z" fill="#424093"/>
</svg>
