<svg width="68" height="68" viewBox="0 0 68 68" fill="none" xmlns="http://www.w3.org/2000/svg">
<path fill-rule="evenodd" clip-rule="evenodd" d="M11.1918 53.8333H11.3334C15.8668 53.8333 19.8901 51.3399 22.6668 48.1666C25.4434 51.3399 29.4668 53.8333 34.0001 53.8333C38.5334 53.8333 42.5568 51.3399 45.3334 48.1666C48.1101 51.3399 52.1334 53.8333 56.6668 53.8333H56.8084L62.1634 34.9066C62.3901 34.1699 62.3334 33.3766 61.9934 32.6966C61.6534 32.0166 61.0301 31.5066 60.2934 31.2799L56.6668 30.0899V16.9999C56.6668 13.8833 54.1168 11.3333 51.0001 11.3333H42.5001V2.83325H25.5001V11.3333H17.0001C13.8834 11.3333 11.3334 13.8833 11.3334 16.9999V30.0899L7.67842 31.2799C6.94176 31.5066 6.31842 32.0166 5.97842 32.6966C5.63842 33.3766 5.55342 34.1699 5.80842 34.9066L11.1918 53.8333ZM56.6668 59.4999C52.7284 59.4999 48.7901 58.1683 45.3334 55.7599C38.4201 60.6049 29.5801 60.6049 22.6668 55.7599C19.2101 58.1683 15.2718 59.4999 11.3334 59.4999H5.66676V65.1666H11.3334C15.2434 65.1666 19.0968 64.1749 22.6668 62.3616C29.8068 66.0166 38.1934 66.0166 45.3334 62.3616C48.9034 64.2032 52.7568 65.1666 56.6668 65.1666H62.3334V59.4999H56.6668ZM51.0001 16.9999H17.0001V28.2483L34.0001 22.6666L51.0001 28.2483V16.9999Z" fill="#424093"/>
</svg>
