<svg width="21" height="20" viewBox="0 0 21 20" fill="none" xmlns="http://www.w3.org/2000/svg">
<path d="M3.07812 4.79785H4.81219H18.6847" stroke="white" stroke-width="1.8" stroke-linecap="round" stroke-linejoin="round"/>
<path d="M7.41165 4.79772V3.06366C7.41165 2.60375 7.59434 2.16269 7.91954 1.83749C8.24474 1.51229 8.68581 1.32959 9.14571 1.32959H12.6138C13.0737 1.32959 13.5148 1.51229 13.84 1.83749C14.1652 2.16269 14.3479 2.60375 14.3479 3.06366V4.79772M16.949 4.79772V16.9362C16.949 17.3961 16.7663 17.8372 16.4411 18.1624C16.1159 18.4876 15.6748 18.6703 15.2149 18.6703H6.54461C6.08471 18.6703 5.64364 18.4876 5.31844 18.1624C4.99324 17.8372 4.81055 17.3961 4.81055 16.9362V4.79772H16.949Z" stroke="white" stroke-width="1.8" stroke-linecap="round" stroke-linejoin="round"/>
<path d="M12.6133 9.13281V14.335" stroke="white" stroke-width="1.8" stroke-linecap="round" stroke-linejoin="round"/>
<path d="M9.14844 9.13281V14.335" stroke="white" stroke-width="1.8" stroke-linecap="round" stroke-linejoin="round"/>
</svg>
