<svg width="25" height="24" viewBox="0 0 25 24" fill="none" xmlns="http://www.w3.org/2000/svg">
<path fill-rule="evenodd" clip-rule="evenodd" d="M22.5 8.99999H17.71L13.32 2.42999C12.92 1.83999 12.05 1.83999 11.66 2.42999L7.27 8.99999H2.5C1.95 8.99999 1.5 9.44999 1.5 9.99999C1.5 10.09 1.51 10.18 1.54 10.27L4.08 19.54C4.31 20.38 5.08 21 6 21H19C19.92 21 20.69 20.38 20.93 19.54L23.47 10.27L23.5 9.99999C23.5 9.44999 23.05 8.99999 22.5 8.99999ZM12.49 4.78999L15.3 8.99999H9.68L12.49 4.78999ZM10.5 15C10.5 16.1 11.4 17 12.5 17C13.6 17 14.5 16.1 14.5 15C14.5 13.9 13.6 13 12.5 13C11.4 13 10.5 13.9 10.5 15Z" fill="#1A202C"/>
</svg>
