<svg width="17" height="14" viewBox="0 0 17 14" fill="none" xmlns="http://www.w3.org/2000/svg">
<path d="M2.39767 3.2465C2.41628 3.05115 2.34186 2.8558 2.19302 2.72557L0.704651 0.920921V0.651154H5.33721L8.9186 8.51162L12.0721 0.651154H16.5V0.920921L15.2256 2.14883C15.114 2.23255 15.0581 2.37208 15.086 2.51162V11.507C15.0674 11.6465 15.114 11.786 15.2256 11.8698L16.4721 13.0977V13.3674H10.2023V13.0977L11.4953 11.8419C11.6256 11.7116 11.6256 11.6744 11.6256 11.4791V4.19534L8.03488 13.3209H7.55116L3.36512 4.19534V10.307C3.32791 10.5674 3.41163 10.8186 3.59767 11.0046L5.2814 13.0418V13.3116H0.5V13.0418L2.18372 11.0046C2.36047 10.8186 2.44419 10.5581 2.39767 10.307V3.2465V3.2465Z" fill="white"/>
</svg>
