<svg width="21" height="20" viewBox="0 0 21 20" fill="none" xmlns="http://www.w3.org/2000/svg">
<path fill-rule="evenodd" clip-rule="evenodd" d="M13.5373 12.2994H14.3466L19.4584 17.398L17.932 18.9174L12.81 13.829V13.0234L12.5334 12.7379C11.3656 13.7372 9.84945 14.3389 8.20015 14.3389C4.52253 14.3389 1.5415 11.3715 1.5415 7.71074C1.5415 4.04997 4.52253 1.08261 8.20015 1.08261C11.8778 1.08261 14.8588 4.04997 14.8588 7.71074C14.8588 9.35248 14.2544 10.8617 13.2505 12.0241L13.5373 12.2994ZM3.59032 7.71074C3.59032 10.2498 5.64938 12.2994 8.20015 12.2994C10.7509 12.2994 12.81 10.2498 12.81 7.71074C12.81 5.17166 10.7509 3.12204 8.20015 3.12204C5.64938 3.12204 3.59032 5.17166 3.59032 7.71074Z" fill="#4A5568"/>
</svg>
