<svg width="15" height="14" viewBox="0 0 15 14" fill="none" xmlns="http://www.w3.org/2000/svg">
<g clip-path="url(#clip0_3033_7803)">
<path d="M12.2728 12.8337C12.595 12.8337 12.8561 12.5725 12.8561 12.2503C12.8561 11.9282 12.595 11.667 12.2728 11.667C11.9506 11.667 11.6895 11.9282 11.6895 12.2503C11.6895 12.5725 11.9506 12.8337 12.2728 12.8337Z" stroke="white" stroke-width="1.6" stroke-linecap="round" stroke-linejoin="round"/>
<path d="M5.85482 12.8337C6.17698 12.8337 6.43815 12.5725 6.43815 12.2503C6.43815 11.9282 6.17698 11.667 5.85482 11.667C5.53265 11.667 5.27148 11.9282 5.27148 12.2503C5.27148 12.5725 5.53265 12.8337 5.85482 12.8337Z" stroke="white" stroke-width="1.6" stroke-linecap="round" stroke-linejoin="round"/>
<path d="M1.18945 0.583008H3.52279L5.08612 8.39384C5.13946 8.66241 5.28557 8.90365 5.49886 9.07535C5.71214 9.24705 5.97903 9.33825 6.25279 9.33301H11.9228C12.1965 9.33825 12.4634 9.24705 12.6767 9.07535C12.89 8.90365 13.0361 8.66241 13.0895 8.39384L14.0228 3.49967H4.10612" stroke="white" stroke-width="1.6" stroke-linecap="round" stroke-linejoin="round"/>
</g>
<defs>
<clipPath id="clip0_3033_7803">
<rect width="14" height="14" fill="white" transform="translate(0.605469)"/>
</clipPath>
</defs>
</svg>
