<svg width="21" height="20" viewBox="0 0 21 20" fill="none" xmlns="http://www.w3.org/2000/svg">
<path fill-rule="evenodd" clip-rule="evenodd" d="M20.5107 4.87696C20.5298 4.632 20.4407 4.39095 20.267 4.21721C20.0933 4.04347 19.8522 3.95442 19.6073 3.97349L15.5304 4.29085C15.2032 4.31632 14.9208 4.52984 14.8071 4.83768C14.6933 5.14552 14.7691 5.49139 15.0012 5.72344L16.1084 6.8307L11.8648 11.0743L8.65398 7.86347C8.22718 7.43667 7.51812 7.45375 7.07025 7.90162C7.05902 7.91285 7.04806 7.92425 7.03738 7.9358C7.0197 7.95112 7.00245 7.96716 6.98567 7.98394L0.776274 14.1933C0.373373 14.5962 0.392745 15.2688 0.819544 15.6956C1.24634 16.1224 1.91895 16.1418 2.32185 15.7389L7.80173 10.259L11.0126 13.4699C11.4394 13.8967 12.112 13.9161 12.5149 13.5131C12.5245 13.5035 12.534 13.4937 12.5431 13.4837C12.5623 13.4668 12.5811 13.4492 12.5995 13.4308L17.654 8.37627L18.7604 9.4826C18.9924 9.71464 19.3382 9.79046 19.6461 9.67676C19.9539 9.56306 20.1674 9.28064 20.1929 8.95347L20.5107 4.87696Z" fill="white"/>
</svg>
