<svg width="29" height="28" viewBox="0 0 29 28" fill="none" xmlns="http://www.w3.org/2000/svg">
<rect x="0.5" width="28" height="28" rx="5" fill="#0B0A18"/>
<rect x="0.5" width="28" height="28" rx="5" fill="black" fill-opacity="0.2"/>
<path d="M9.37731 10.8409C9.39293 10.677 9.33045 10.513 9.2055 10.4036L7.95599 8.88858V8.66211H11.8451L14.8517 15.2611L17.4992 8.66211H21.2165V8.88858L20.1466 9.91943C20.0528 9.98972 20.006 10.1069 20.0294 10.224V17.7758C20.0138 17.8929 20.0528 18.01 20.1466 18.0803L21.193 19.1112V19.3376H15.9295V19.1112L17.015 18.0569C17.1243 17.9476 17.1243 17.9163 17.1243 17.7523V11.6375L14.1098 19.2986H13.7038L10.1895 11.6375V16.7683C10.1583 16.987 10.2285 17.1979 10.3847 17.354L11.7982 19.0643V19.2908H7.78418V19.0643L9.19769 17.354C9.34607 17.1979 9.41636 16.9792 9.37731 16.7683V10.8409Z" fill="white"/>
</svg>
