<svg width="15" height="15" viewBox="0 0 15 15" fill="none" xmlns="http://www.w3.org/2000/svg">
<path d="M7.0237 8.18083L4.80962 6.82092C4.71249 6.7614 4.60236 6.73011 4.49028 6.73017C4.3782 6.73023 4.2681 6.76164 4.17103 6.82126L1.94547 8.20232C1.84831 8.262 1.76763 8.34783 1.71153 8.4512C1.65543 8.55457 1.6259 8.67182 1.6259 8.79118L1.61443 11.5321C1.61443 11.6514 1.6439 11.7685 1.69989 11.8718C1.75588 11.9751 1.83642 12.0609 1.93343 12.1207L4.14752 13.4806C4.24464 13.5401 4.35477 13.5714 4.46686 13.5713C4.57894 13.5713 4.68904 13.5398 4.7861 13.4802L7.01166 12.0992C7.10883 12.0395 7.18951 11.9537 7.24561 11.8503C7.30171 11.7469 7.33124 11.6297 7.33124 11.5103L7.34271 8.76934C7.34271 8.6501 7.31324 8.53296 7.25724 8.42967C7.20125 8.32637 7.12071 8.24056 7.0237 8.18083Z" stroke="#718096" stroke-width="1.2" stroke-linecap="round" stroke-linejoin="round"/>
<path d="M12.6135 8.08171L10.3995 6.72179C10.3023 6.66228 10.1922 6.63098 10.0801 6.63105C9.96804 6.63111 9.85794 6.66252 9.76088 6.72214L7.53532 8.1032C7.43815 8.16288 7.35747 8.24871 7.30137 8.35208C7.24528 8.45545 7.21574 8.5727 7.21574 8.69206L7.20427 11.433C7.20427 11.5523 7.23374 11.6694 7.28974 11.7727C7.34573 11.876 7.42627 11.9618 7.52328 12.0215L9.73736 13.3815C9.83449 13.441 9.94462 13.4723 10.0567 13.4722C10.1688 13.4721 10.2789 13.4407 10.3759 13.3811L12.6015 12.0001C12.6987 11.9404 12.7794 11.8545 12.8355 11.7512C12.8915 11.6478 12.9211 11.5305 12.9211 11.4112L12.9326 8.67022C12.9326 8.55098 12.9031 8.43384 12.8471 8.33054C12.7911 8.22725 12.7106 8.14144 12.6135 8.08171Z" stroke="#718096" stroke-width="1.2" stroke-linecap="round" stroke-linejoin="round"/>
<path d="M9.90066 2.87956L7.68657 1.51965C7.58945 1.46013 7.47932 1.42884 7.36723 1.4289C7.25515 1.42896 7.14505 1.46038 7.04799 1.51999L4.82243 2.90105C4.72526 2.96073 4.64458 3.04657 4.58848 3.14993C4.53238 3.2533 4.50285 3.37055 4.50285 3.48991L4.49138 6.23088C4.49138 6.35012 4.52085 6.46726 4.57685 6.57056C4.63284 6.67385 4.71338 6.75967 4.81039 6.81939L7.02447 8.17931C7.1216 8.23882 7.23173 8.27012 7.34381 8.27006C7.45589 8.26999 7.56599 8.23858 7.66306 8.17896L9.88862 6.7979C9.98578 6.73822 10.0665 6.65239 10.1226 6.54902C10.1787 6.44566 10.2082 6.3284 10.2082 6.20904L10.2197 3.46807C10.2197 3.34883 10.1902 3.23169 10.1342 3.1284C10.0782 3.0251 9.99767 2.93929 9.90066 2.87956Z" stroke="#718096" stroke-width="1.2" stroke-linecap="round" stroke-linejoin="round"/>
</svg>
