<svg width="20" height="20" viewBox="0 0 20 20" fill="none" xmlns="http://www.w3.org/2000/svg">
<path fill-rule="evenodd" clip-rule="evenodd" d="M3.11503 1.4478C3.61513 0.947699 4.29341 0.666748 5.00065 0.666748H11.6673C11.9325 0.666748 12.1869 0.772105 12.3744 0.959641L17.3744 5.95964C17.562 6.14718 17.6673 6.40153 17.6673 6.66675V16.6667C17.6673 17.374 17.3864 18.0523 16.8863 18.5524C16.3862 19.0525 15.7079 19.3334 15.0007 19.3334H5.00065C4.29341 19.3334 3.61513 19.0525 3.11503 18.5524C2.61494 18.0523 2.33398 17.374 2.33398 16.6667V3.33341C2.33398 2.62617 2.61494 1.94789 3.11503 1.4478ZM5.00065 2.66675C4.82384 2.66675 4.65427 2.73699 4.52925 2.86201C4.40422 2.98703 4.33398 3.1566 4.33398 3.33341V16.6667C4.33398 16.8436 4.40422 17.0131 4.52925 17.1382C4.65427 17.2632 4.82384 17.3334 5.00065 17.3334H15.0007C15.1775 17.3334 15.347 17.2632 15.4721 17.1382C15.5971 17.0131 15.6673 16.8436 15.6673 16.6667V7.08096L11.2531 2.66675H5.00065Z" fill="white"/>
<path fill-rule="evenodd" clip-rule="evenodd" d="M5.66602 14.1666C5.66602 13.6143 6.11373 13.1666 6.66602 13.1666H13.3327C13.885 13.1666 14.3327 13.6143 14.3327 14.1666C14.3327 14.7189 13.885 15.1666 13.3327 15.1666H6.66602C6.11373 15.1666 5.66602 14.7189 5.66602 14.1666Z" fill="white"/>
<path fill-rule="evenodd" clip-rule="evenodd" d="M5.66602 10.8334C5.66602 10.2811 6.11373 9.83337 6.66602 9.83337H13.3327C13.885 9.83337 14.3327 10.2811 14.3327 10.8334C14.3327 11.3857 13.885 11.8334 13.3327 11.8334H6.66602C6.11373 11.8334 5.66602 11.3857 5.66602 10.8334Z" fill="white"/>
<path fill-rule="evenodd" clip-rule="evenodd" d="M5.66602 7.5C5.66602 6.94772 6.11373 6.5 6.66602 6.5H8.33268C8.88497 6.5 9.33268 6.94772 9.33268 7.5C9.33268 8.05228 8.88497 8.5 8.33268 8.5H6.66602C6.11373 8.5 5.66602 8.05228 5.66602 7.5Z" fill="white"/>
<path fill-rule="evenodd" clip-rule="evenodd" d="M11.666 0.666748C12.2183 0.666748 12.666 1.11446 12.666 1.66675V5.66675H16.666C17.2183 5.66675 17.666 6.11446 17.666 6.66675C17.666 7.21903 17.2183 7.66675 16.666 7.66675H11.666C11.1137 7.66675 10.666 7.21903 10.666 6.66675V1.66675C10.666 1.11446 11.1137 0.666748 11.666 0.666748Z" fill="white"/>
</svg>
