<svg width="19" height="18" viewBox="0 0 19 18" fill="none" xmlns="http://www.w3.org/2000/svg">
<path fill-rule="evenodd" clip-rule="evenodd" d="M9.44555 0C14.446 0 18.5 4.05394 18.5 9.05444C18.5 13.5746 15.1889 17.3199 10.8609 18V17.9977C10.8614 17.9976 10.8618 17.9975 10.8623 17.9975V11.6725H12.9718L13.3727 9.05572H13.3713L13.3715 9.05454H10.861V7.35613C10.861 7.29619 10.8635 7.23638 10.8686 7.17709C10.9255 6.52861 11.3066 5.94321 12.3365 5.94321H13.4777V5.94207H13.4778V3.71338C13.4778 3.71338 12.4416 3.53662 11.4515 3.53662C9.57466 3.53662 8.28829 4.56886 8.06591 6.45444C8.04312 6.64745 8.03147 6.84941 8.03147 7.06013V9.05326H5.73242V9.05444H5.73232V11.6712H8.03147V17.9987C3.70215 17.3199 0.391113 13.5733 0.391113 9.05444C0.391113 4.05394 4.44505 0 9.44555 0Z" fill="white"/>
</svg>
