<svg width="21" height="20" viewBox="0 0 21 20" fill="none" xmlns="http://www.w3.org/2000/svg">
<path fill-rule="evenodd" clip-rule="evenodd" d="M1.48047 10.0001C1.48047 9.35239 2.00553 8.82733 2.65323 8.82733H18.3501C18.9978 8.82733 19.5229 9.35239 19.5229 10.0001C19.5229 10.6478 18.9978 11.1728 18.3501 11.1728H2.65323C2.00553 11.1728 1.48047 10.6478 1.48047 10.0001Z" fill="white"/>
<path fill-rule="evenodd" clip-rule="evenodd" d="M12.9538 3.71569C13.4452 3.29379 14.1856 3.35017 14.6075 3.84161L19.2386 9.23604C19.6158 9.67545 19.6158 10.3244 19.2386 10.7639L14.6075 16.1584C14.1856 16.6499 13.4452 16.7062 12.9538 16.2843C12.4624 15.8625 12.406 15.122 12.8279 14.6306L16.8031 9.99996L12.8279 5.36943C12.406 4.87799 12.4623 4.13758 12.9538 3.71569Z" fill="white"/>
</svg>
