<svg width="19" height="18" viewBox="0 0 19 18" fill="none" xmlns="http://www.w3.org/2000/svg">
<path fill-rule="evenodd" clip-rule="evenodd" d="M13.5054 0H5.27683C2.57852 0 0.391113 2.18741 0.391113 4.88571V13.1143C0.391113 15.8126 2.57852 18 5.27683 18H13.5054C16.2037 18 18.3911 15.8126 18.3911 13.1143V4.88571C18.3911 2.18741 16.2037 0 13.5054 0ZM14.9383 2.16943C15.5357 2.16943 16.0294 2.61335 16.1075 3.18931L16.1183 3.34943C16.1183 4.0027 15.59 4.531 14.9383 4.531C14.3409 4.531 13.8472 4.08708 13.7691 3.51112L13.7583 3.351C13.7583 2.69774 14.2866 2.16943 14.9383 2.16943ZM9.39101 3.72908C6.48 3.72908 4.12015 6.08892 4.12015 8.99993C4.12015 11.9109 6.48 14.2708 9.39101 14.2708C12.302 14.2708 14.6619 11.9109 14.6619 8.99993C14.6619 6.08892 12.302 3.72908 9.39101 3.72908ZM9.39159 5.83733C11.1382 5.83733 12.5541 7.25323 12.5541 8.99984C12.5541 10.7464 11.1382 12.1624 9.39159 12.1624C7.64498 12.1624 6.22908 10.7464 6.22908 8.99984C6.22908 7.25323 7.64498 5.83733 9.39159 5.83733Z" fill="white"/>
</svg>
