<svg xmlns="http://www.w3.org/2000/svg" width="16" height="16" viewBox="0 0 16 16">
  <g id="그룹_2" data-name="그룹 2" transform="translate(-634 370)">
    <rect id="사각형_1" data-name="사각형 1" width="16" height="16" transform="translate(634 -370)" fill="none"/>
    <g id="icon-call" transform="translate(632.75 -368.75)">
      <path id="패스_1" data-name="패스 1" d="M6.362,6.294a8.837,8.837,0,0,0,3.844,3.844l1.283-1.283a.58.58,0,0,1,.6-.14,6.654,6.654,0,0,0,2.083.332.585.585,0,0,1,.583.583v2.036a.585.585,0,0,1-.583.583A9.916,9.916,0,0,1,4.25,2.333a.585.585,0,0,1,.583-.583H6.875a.585.585,0,0,1,.583.583,6.627,6.627,0,0,0,.332,2.083.585.585,0,0,1-.146.595Z" fill="#fff"/>
    </g>
  </g>
</svg>
