<svg width="68" height="68" viewBox="0 0 68 68" fill="none" xmlns="http://www.w3.org/2000/svg">
<path fill-rule="evenodd" clip-rule="evenodd" d="M5.66797 34.0001C5.66797 18.3601 18.333 5.66675 33.973 5.66675C49.6413 5.66675 62.3346 18.3601 62.3346 34.0001C62.3346 49.6401 49.6413 62.3334 33.973 62.3334C18.333 62.3334 5.66797 49.6401 5.66797 34.0001ZM45.2496 22.6667H53.608C50.888 17.9917 46.553 14.3651 41.3396 12.5801C43.0396 15.7251 44.343 19.1251 45.2496 22.6667ZM34.0013 11.4467C36.353 14.8467 38.1946 18.6151 39.413 22.6667H28.5896C29.808 18.6151 31.6496 14.8467 34.0013 11.4467ZM11.3346 34.0001C11.3346 35.9551 11.618 37.8534 12.0713 39.6667H21.648C21.4213 37.7967 21.2513 35.9267 21.2513 34.0001C21.2513 32.0734 21.4213 30.2034 21.648 28.3334H12.0713C11.618 30.1467 11.3346 32.0451 11.3346 34.0001ZM14.3946 45.3334H22.753C23.6596 48.8751 24.963 52.2751 26.663 55.4201C21.4496 53.6351 17.1146 50.0367 14.3946 45.3334ZM14.3946 22.6667H22.753C23.6596 19.1251 24.963 15.7251 26.663 12.5801C21.4496 14.3651 17.1146 17.9634 14.3946 22.6667ZM34.0013 56.5534C31.6496 53.1534 29.808 49.3851 28.5896 45.3334H39.413C38.1946 49.3851 36.353 53.1534 34.0013 56.5534ZM26.918 34.0001C26.918 35.9267 27.1163 37.7967 27.3713 39.6667H40.6313C40.8863 37.7967 41.0846 35.9267 41.0846 34.0001C41.0846 32.0734 40.8863 30.1751 40.6313 28.3334H27.3713C27.1163 30.1751 26.918 32.0734 26.918 34.0001ZM41.3396 55.4201C43.0396 52.2751 44.343 48.8751 45.2496 45.3334H53.608C50.888 50.0084 46.553 53.6351 41.3396 55.4201ZM46.7513 34.0001C46.7513 35.9267 46.5813 37.7967 46.3546 39.6667H55.9313C56.3846 37.8534 56.668 35.9551 56.668 34.0001C56.668 32.0451 56.3846 30.1467 55.9313 28.3334H46.3546C46.5813 30.2034 46.7513 32.0734 46.7513 34.0001Z" fill="#424093"/>
</svg>
