<svg xmlns="http://www.w3.org/2000/svg" width="31" height="40" viewBox="0 0 31 40">
  <g id="그룹_6" data-name="그룹 6" transform="translate(-875 368)">
    <rect id="사각형_4" data-name="사각형 4" width="31" height="40" transform="translate(875 -368)" fill="none"/>
    <g id="그룹_4" data-name="그룹 4">
      <path id="패스_3" data-name="패스 3" d="M3.086,36.4H28.6a2.314,2.314,0,0,0,2.586-2.57V23.126c0-8.737-5.431-14.647-13.966-14.647H14.379C5.931,8.48.5,14.475.5,23.126V33.833A2.314,2.314,0,0,0,3.086,36.4Z" transform="translate(874.5 -368)" fill="#ffb701"/>
      <path id="패스_4" data-name="패스 4" d="M18.172,14.133H13.517a8.274,8.274,0,0,0-8.448,8.394v2.227a8.274,8.274,0,0,0,8.448,8.394h4.655a8.274,8.274,0,0,0,8.448-8.394V22.527A8.274,8.274,0,0,0,18.172,14.133Z" transform="translate(874.5 -368)" fill="#fff"/>
      <path id="패스_5" data-name="패스 5" d="M23.086,26.381c1,0,1.81-.575,1.81-1.285s-.81-1.285-1.81-1.285-1.81.575-1.81,1.285S22.086,26.381,23.086,26.381Z" transform="translate(874.5 -368)" fill="#ffb701"/>
      <path id="패스_6" data-name="패스 6" d="M8.6,26.381c1,0,1.81-.575,1.81-1.285S9.6,23.812,8.6,23.812s-1.81.575-1.81,1.285S7.6,26.381,8.6,26.381Z" transform="translate(874.5 -368)" fill="#ffb701"/>
      <path id="패스_7" data-name="패스 7" d="M13.6,22.1c0,.6-.69,1.114-1.552,1.114S10.5,22.7,10.5,22.1s.69-1.113,1.552-1.113C12.914,21.071,13.6,21.5,13.6,22.1Z" transform="translate(874.5 -368)" fill="#221f20"/>
      <path id="패스_8" data-name="패스 8" d="M21.1,22.1c0,.6-.69,1.114-1.552,1.114S18,22.7,18,22.1s.69-1.113,1.552-1.113C20.414,21.071,21.1,21.5,21.1,22.1Z" transform="translate(874.5 -368)" fill="#221f20"/>
      <path id="패스_9" data-name="패스 9" d="M15.845,28.009a5.673,5.673,0,0,1-3.793-1.456.656.656,0,0,1-.086-.857.666.666,0,0,1,.862-.086,4.612,4.612,0,0,0,2.931,1.114A4.436,4.436,0,0,0,18.69,25.61a.578.578,0,0,1,.862.086.57.57,0,0,1-.086.857A4.817,4.817,0,0,1,15.845,28.009Z" transform="translate(874.5 -368)" fill="#221f20"/>
      <path id="패스_10" data-name="패스 10" d="M17.224,8.48a19.793,19.793,0,0,1,2.328.171c.517-1.113,1.034-2.484,1.724-4.111A2.028,2.028,0,0,0,23,2.57,2.037,2.037,0,0,0,21.017.428,2.1,2.1,0,0,0,18.862,2.4a2.577,2.577,0,0,0,.431,1.37C18.517,5.4,17.827,7.109,17.224,8.48Z" transform="translate(874.5 -368)" fill="#3a0c93"/>
      <path id="패스_11" data-name="패스 11" d="M11.017,4.111c.6,1.8,1.121,3.255,1.552,4.54a12.814,12.814,0,0,1,1.81-.086h.431L13.086,3.426A2.159,2.159,0,0,0,13.6,2.141,2.037,2.037,0,0,0,11.62,0,2.1,2.1,0,0,0,9.465,1.97,2.049,2.049,0,0,0,11.017,4.111Z" transform="translate(874.5 -368)" fill="#3a0c93"/>
    </g>
  </g>
</svg>
