<svg width="113" height="30" viewBox="0 0 113 30" fill="none" xmlns="http://www.w3.org/2000/svg">
<g clip-path="url(#clip0_2271_158536)">
<path d="M85.1734 15.4999C84.7734 15.4999 84.5734 15.4999 84.5734 15.9999C84.5734 17.5999 86.5734 18.5999 89.1734 18.5999C91.4734 18.5999 91.9734 17.8999 92.9734 17.8999C93.7734 17.8999 94.2734 18.2999 94.2734 19.2999C94.2734 22.0999 90.1734 23.7999 86.7734 23.7999C81.1734 23.7999 77.2734 20.5999 77.2734 15.3999C77.2734 10.0999 80.4734 6.3999 86.7734 6.3999C91.6734 6.3999 94.2734 9.5999 94.2734 13.1999C94.2734 15.0999 93.5734 15.5999 92.2734 15.5999H85.1734V15.4999ZM87.9734 11.5999C87.9734 10.3999 87.4734 9.2999 86.2734 9.2999C84.9734 9.2999 84.4734 10.2999 84.4734 12.0999C84.4734 12.5999 84.7734 12.6999 85.4734 12.6999C85.6734 12.6999 86.3734 12.6999 86.6734 12.6999C87.4734 12.7999 87.9734 12.6999 87.9734 11.5999Z" fill="white"/>
<path d="M103.574 15.4999C103.174 15.4999 102.974 15.4999 102.974 15.9999C102.974 17.5999 104.974 18.5999 107.574 18.5999C109.874 18.5999 110.374 17.8999 111.374 17.8999C112.174 17.8999 112.674 18.2999 112.674 19.2999C112.674 22.0999 108.574 23.7999 105.174 23.7999C99.5738 23.7999 95.6738 20.5999 95.6738 15.3999C95.6738 10.0999 98.8738 6.3999 105.174 6.3999C110.074 6.3999 112.674 9.5999 112.674 13.1999C112.674 15.0999 111.974 15.5999 110.674 15.5999H103.574V15.4999ZM106.274 11.5999C106.274 10.3999 105.774 9.2999 104.574 9.2999C103.274 9.2999 102.774 10.2999 102.774 12.0999C102.774 12.5999 103.074 12.6999 103.774 12.6999C103.974 12.6999 104.674 12.6999 104.974 12.6999C105.874 12.7999 106.274 12.6999 106.274 11.5999Z" fill="white"/>
<path d="M29.1734 15.4999C28.7734 15.4999 28.5734 15.4999 28.5734 15.9999C28.5734 17.5999 30.5734 18.5999 33.1734 18.5999C35.4734 18.5999 35.9734 17.8999 36.9734 17.8999C37.7734 17.8999 38.2734 18.2999 38.2734 19.2999C38.2734 22.0999 34.1734 23.7999 30.7734 23.7999C25.1734 23.7999 21.2734 20.5999 21.2734 15.3999C21.2734 10.0999 24.4734 6.3999 30.7734 6.3999C35.6734 6.3999 38.2734 9.5999 38.2734 13.1999C38.2734 15.0999 37.5734 15.5999 36.2734 15.5999H29.1734V15.4999ZM31.8734 11.5999C31.8734 10.3999 31.3734 9.2999 30.1734 9.2999C28.8734 9.2999 28.3734 10.2999 28.3734 12.0999C28.3734 12.5999 28.6734 12.6999 29.3734 12.6999C29.5734 12.6999 30.2734 12.6999 30.5734 12.6999C31.3734 12.7999 31.8734 12.6999 31.8734 11.5999Z" fill="white"/>
<path d="M69.3738 6.3999C66.8738 6.3999 66.0738 7.6999 65.5738 8.5999C65.4738 8.7999 65.3738 8.9999 65.1738 8.9999C65.0738 8.9999 65.0738 8.6999 65.0738 8.6999C65.0738 8.6999 65.0738 1.1999 65.0738 0.999902C65.0738 0.599902 65.0738 -0.100098 63.9738 -0.100098C63.0738 -0.100098 61.2738 0.499902 59.9738 0.999902C58.5738 1.5999 56.1738 2.6999 56.1738 3.9999C56.1738 4.7999 56.7738 5.1999 57.0738 5.3999C57.3738 5.5999 57.8738 6.0999 57.8738 7.2999C57.8738 8.4999 57.8738 22.3999 57.8738 22.3999C57.8738 22.3999 57.7738 23.8999 59.2738 23.8999C60.7738 23.8999 61.1738 22.5999 62.0738 22.5999C63.0738 22.5999 64.0738 23.4999 67.5738 23.4999C71.3738 23.4999 76.0738 21.1999 76.0738 14.9999C76.1738 8.8999 71.7738 6.3999 69.3738 6.3999ZM67.4738 20.2999C65.3738 20.2999 65.0738 17.5999 65.0738 15.5999C65.0738 14.4999 65.0738 13.5999 65.0738 12.2999C65.0738 11.0999 65.5738 10.7999 65.8738 10.7999C68.2738 10.7999 69.1738 15.2999 69.1738 17.5999C69.1738 17.9999 69.1738 20.2999 67.4738 20.2999Z" fill="white"/>
<path d="M20.8738 6.8999C20.0738 6.8999 18.8738 6.8999 17.5738 6.8999C16.2738 6.8999 15.2738 6.8999 14.1738 6.8999C13.2738 6.8999 12.9738 7.3999 12.9738 7.9999C12.9738 8.7999 13.2738 8.8999 13.8738 9.1999C14.0738 9.2999 14.4738 9.3999 14.4738 9.7999C14.4738 9.9999 14.3738 10.2999 14.1738 10.8999C13.7738 11.7999 13.2738 13.0999 13.1738 13.2999C13.0738 13.5999 12.8738 13.8999 12.5738 13.8999C12.1738 13.8999 12.0738 13.4999 11.9738 13.2999C11.7738 12.9999 11.0738 11.2999 10.9738 10.8999C10.8738 10.5999 10.6738 9.9999 10.6738 9.7999C10.6738 9.4999 10.8738 9.3999 11.4738 9.0999C12.0738 8.7999 12.1738 8.6999 12.1738 7.9999C12.1738 7.3999 11.8738 6.8999 10.8738 6.8999C10.3738 6.8999 6.97383 6.8999 6.47383 6.8999C5.87383 6.8999 3.17383 6.8999 1.97383 6.8999C1.17383 6.8999 0.273828 7.2999 0.273828 8.2999C0.273828 8.9999 0.573828 9.1999 0.873828 9.2999C1.17383 9.3999 1.87383 9.6999 2.37383 10.0999C2.97383 10.5999 3.37383 11.4999 3.37383 11.4999C3.37383 11.4999 7.37383 19.1999 8.07383 20.6999C8.37383 21.2999 8.47383 21.7999 8.47383 22.3999C8.47383 23.3999 7.87383 24.5999 6.57383 24.5999C4.77383 24.5999 5.87383 21.5999 3.07383 21.5999C1.37383 21.5999 0.173828 22.8999 0.173828 24.4999C0.173828 27.2999 2.37383 29.1999 5.17383 29.1999C10.3738 29.1999 12.7738 23.2999 13.7738 21.3999C14.7738 19.4999 18.3738 12.1999 18.5738 11.6999C18.7738 11.1999 19.0738 10.2999 19.8738 9.9999C20.5738 9.6999 20.9738 9.5999 21.4738 9.3999C21.9738 9.3999 22.2738 9.0999 22.2738 8.3999C22.2738 7.7999 21.7738 6.8999 20.8738 6.8999Z" fill="white"/>
<path d="M54.8738 10.5C54.8738 9.2 54.1738 6.7 52.8738 6.7C52.4738 6.7 52.1738 7 51.2738 7C50.3738 7 49.3738 6.5 47.2738 6.5C42.3738 6.5 39.8738 9.4 39.8738 12.3C39.8738 15 41.6738 16.1 43.4738 16.8C45.3738 17.5 46.3738 17.7 46.8738 17.9C47.2738 18 48.5738 18.5 48.5738 19.4C48.5738 20.3 47.4738 20.3 46.9738 20.3C45.8738 20.3 44.7738 20 44.2738 19.6C43.7738 19.3 42.9738 18.6 42.6738 18.4C42.3738 18.1 41.6738 17.4 40.8738 17.4C39.9738 17.4 39.6738 18.4 39.6738 19C39.6738 19.6 39.6738 20.2 39.7738 20.7C39.7738 21.2 39.9738 22.1 40.4738 22.5C41.0738 23 42.1738 23.1 42.9738 23.3C43.5738 23.4 45.3738 23.9 47.2738 23.9C53.3738 23.9 55.7738 20.4 55.7738 17.9C55.7738 15.2 53.6738 14.1 51.4738 13.4C50.9738 13.2 48.7738 12.6 48.3738 12.4C47.9738 12.3 47.0738 11.8 47.0738 11C47.0738 10.5 47.4738 10.1 48.2738 10.1C48.7738 10.1 49.5738 10.3 49.9738 10.5C50.2738 10.7 51.0738 11.1 51.8738 11.6C52.4738 11.9 52.9738 12.1 53.5738 12.1C54.9738 11.9 54.8738 10.9 54.8738 10.5Z" fill="white"/>
</g>
<defs>
<clipPath id="clip0_2271_158536">
<rect width="112.4" height="29.3" fill="white" transform="translate(0.273438)"/>
</clipPath>
</defs>
</svg>
