<svg xmlns="http://www.w3.org/2000/svg" width="117.175" height="30.332" viewBox="0 0 117.175 30.332">
  <g id="그룹_3" data-name="그룹 3" transform="translate(-917.836 358.322)">
    <path id="패스_12" data-name="패스 12" d="M131.879,25.782c-.431,0-.689,0-.689.428,0,1.713,2.155,2.655,4.827,2.655,2.414,0,2.931-.771,3.966-.771a1.289,1.289,0,0,1,1.379,1.456c0,2.912-4.224,4.625-7.845,4.625-5.862,0-9.913-3.34-9.913-8.651,0-5.567,3.362-9.336,9.913-9.336,5.173,0,7.845,3.34,7.845,7.024,0,1.97-.69,2.484-2.069,2.484h-7.414Zm2.845-4.026c0-1.2-.517-2.313-1.724-2.313-1.293,0-1.9,1.028-1.9,2.912,0,.6.344.6,1.034.6h1.207C134.207,22.955,134.724,22.784,134.724,21.756Z" transform="translate(874.5 -368)" fill="#3a0c93"/>
    <path id="패스_13" data-name="패스 13" d="M151.017,25.782c-.431,0-.69,0-.69.428,0,1.713,2.156,2.655,4.828,2.655,2.414,0,2.931-.771,3.966-.771A1.29,1.29,0,0,1,160.5,29.55c0,2.912-4.224,4.625-7.845,4.625-5.862,0-9.914-3.34-9.914-8.651,0-5.567,3.362-9.336,9.914-9.336,5.172,0,7.845,3.34,7.845,7.024,0,1.97-.69,2.484-2.069,2.484h-7.414Zm2.845-4.026c0-1.2-.517-2.313-1.724-2.313-1.293,0-1.9,1.028-1.9,2.912,0,.6.345.6,1.035.6h1.207C153.431,22.955,153.862,22.784,153.862,21.756Z" transform="translate(874.5 -368)" fill="#3a0c93"/>
    <path id="패스_14" data-name="패스 14" d="M73.517,25.782c-.431,0-.69,0-.69.428,0,1.713,2.155,2.655,4.828,2.655,2.414,0,2.931-.771,3.965-.771A1.29,1.29,0,0,1,83,29.55c0,2.912-4.224,4.625-7.845,4.625-5.862,0-9.914-3.34-9.914-8.651,0-5.567,3.362-9.336,9.914-9.336,5.172,0,7.845,3.34,7.845,7.024,0,1.97-.69,2.484-2.069,2.484H73.517Zm2.759-4.026c0-1.2-.517-2.313-1.724-2.313-1.293,0-1.9,1.028-1.9,2.912,0,.6.345.6,1.035.6H74.9C75.845,22.955,76.276,22.784,76.276,21.756Z" transform="translate(874.5 -368)" fill="#3a0c93"/>
    <path id="패스_15" data-name="패스 15" d="M115.413,16.36a4.082,4.082,0,0,0-3.965,2.313c-.087.171-.259.428-.431.428s-.173-.343-.173-.343-.086-7.794-.086-7.966c0-.343,0-1.114-1.121-1.114a14.225,14.225,0,0,0-4.138,1.2c-1.379.6-3.879,1.8-3.879,3.084a1.725,1.725,0,0,0,.948,1.456,2.462,2.462,0,0,1,.862,1.97V32.976a1.42,1.42,0,0,0,1.466,1.542c1.552,0,1.9-1.37,2.931-1.37s2.069.942,5.776.942c3.965,0,8.793-2.4,8.793-8.822C122.4,18.929,117.913,16.36,115.413,16.36Zm-1.983,14.3c-2.241,0-2.5-2.741-2.5-4.882V22.355c0-1.285.518-1.542.863-1.542,2.586,0,3.448,4.625,3.448,7.024-.086.514-.086,2.827-1.811,2.827Z" transform="translate(874.5 -368)" fill="#3a0c93"/>
    <path id="패스_16" data-name="패스 16" d="M64.9,16.788H57.914c-.948,0-1.293.514-1.293,1.114,0,.771.345.942.948,1.2.259.086.6.171.6.6a3.424,3.424,0,0,1-.345,1.114c-.345.942-.948,2.313-1.035,2.484-.172.257-.259.685-.69.685-.345,0-.517-.428-.69-.685-.172-.343-.862-2.056-1.035-2.484a3.253,3.253,0,0,1-.345-1.114c0-.257.259-.428.862-.685.69-.257.776-.428.776-1.113,0-.6-.345-1.114-1.379-1.114h-9.31a1.527,1.527,0,0,0-1.552,1.542c0,.771.345.942.6,1.028a4.789,4.789,0,0,1,1.552.857,4.949,4.949,0,0,1,1.035,1.456s4.138,7.966,4.914,9.507a3.277,3.277,0,0,1,.431,1.8,2.183,2.183,0,0,1-1.983,2.313c-1.9,0-.69-3.083-3.621-3.083a2.936,2.936,0,0,0-3.017,3c0,2.912,2.328,4.8,5.172,4.8,5.431,0,7.931-6.167,8.879-8.051s4.741-9.508,5-10.021.6-1.456,1.293-1.713,1.121-.428,1.638-.6a1.1,1.1,0,0,0,.776-1.2,1.275,1.275,0,0,0-1.2-1.637Z" transform="translate(874.5 -368)" fill="#3a0c93"/>
    <path id="패스_17" data-name="패스 17" d="M100.327,20.557c0-1.37-.689-3.94-2.069-3.94a10.835,10.835,0,0,1-1.638.257,37.181,37.181,0,0,0-4.138-.514c-5.086,0-7.672,3.084-7.672,6,0,2.826,1.9,3.94,3.793,4.625,1.983.685,3.017.942,3.621,1.114.431.171,1.724.685,1.724,1.542s-1.121.942-1.638.942a5.332,5.332,0,0,1-2.845-.771c-.517-.343-1.293-1.028-1.638-1.285a3.2,3.2,0,0,0-1.983-1.113c-.948,0-1.207,1.028-1.207,1.627a11.986,11.986,0,0,0,.086,1.8c.086.514.172,1.456.776,1.884a6.589,6.589,0,0,0,2.586.856,17.336,17.336,0,0,0,4.483.685c6.379,0,8.879-3.683,8.879-6.253,0-2.827-2.241-3.94-4.4-4.711-.517-.171-2.759-.857-3.19-1.028s-1.379-.685-1.379-1.37c0-.514.431-.942,1.207-.942a5.658,5.658,0,0,1,1.724.428c.345.171,1.121.6,1.983,1.113a3.343,3.343,0,0,0,1.724.514C100.327,22.013,100.327,20.9,100.327,20.557Z" transform="translate(874.5 -368)" fill="#3a0c93"/>
  </g>
</svg>
